<svg width="86" height="156" viewBox="0 0 86 156" fill="none" xmlns="http://www.w3.org/2000/svg">
<path d="M7.52127 155.05C-35.2233 155.05 -70 120.273 -70 77.5213C-70 34.7692 -35.2233 0 7.52127 0C50.2658 0 85.05 34.7767 85.05 77.5213C85.05 120.266 50.2733 155.05 7.52127 155.05ZM7.52127 1.49771C-34.3995 1.49771 -68.5023 35.6005 -68.5023 77.5213C-68.5023 119.442 -34.3995 153.552 7.52127 153.552C49.4421 153.552 83.5523 119.45 83.5523 77.5213C83.5523 35.6005 49.4421 1.49771 7.52127 1.49771Z" fill="#0B315E"/>
<path d="M7.52127 142.372C-28.2365 142.372 -57.3219 113.279 -57.3219 77.5287C-57.3219 41.771 -28.229 12.6855 7.52127 12.6855C43.279 12.6855 72.3644 41.7785 72.3644 77.5287C72.3719 113.279 43.279 142.372 7.52127 142.372ZM7.52127 17.8077C-25.4058 17.8077 -52.1923 44.5942 -52.1923 77.5212C-52.1923 110.448 -25.4058 137.235 7.52127 137.235C40.4483 137.235 67.2348 110.448 67.2348 77.5212C67.2348 44.5942 40.4483 17.8077 7.52127 17.8077Z" fill="#FF9D00"/>
<path d="M7.52126 129.686C-21.2422 129.686 -44.6438 106.285 -44.6438 77.5212C-44.6438 48.7578 -21.2422 25.3561 7.52126 25.3561C36.2847 25.3561 59.6863 48.7578 59.6863 77.5212C59.6863 106.285 36.2847 129.686 7.52126 129.686ZM7.52126 26.8538C-20.4184 26.8538 -43.1461 49.5815 -43.1461 77.5212C-43.1461 105.461 -20.4184 128.189 7.52126 128.189C35.461 128.189 58.1886 105.461 58.1886 77.5212C58.1886 49.5815 35.461 26.8538 7.52126 26.8538Z" fill="#0B315E"/>
<path d="M7.52126 117.008C-14.2479 117.008 -31.9658 99.2979 -31.9658 77.5213C-31.9658 55.7446 -14.2554 38.0342 7.52126 38.0342C29.2979 38.0342 47.0083 55.7446 47.0083 77.5213C47.0083 99.2979 29.2979 117.008 7.52126 117.008ZM7.52126 39.5394C-13.4242 39.5394 -30.4681 56.5833 -30.4681 77.5287C-30.4681 98.4742 -13.4242 115.518 7.52126 115.518C28.4667 115.518 45.5106 98.4742 45.5106 77.5287C45.5106 56.5833 28.4742 39.5394 7.52126 39.5394Z" fill="#0B315E"/>
<path d="M7.52127 104.33C-7.26109 104.33 -19.2802 92.3036 -19.2802 77.5212C-19.2802 62.7389 -7.2536 50.7198 7.52127 50.7198C22.3036 50.7198 34.3302 62.7464 34.3302 77.5212C34.3302 92.3036 22.3036 104.33 7.52127 104.33ZM7.52127 52.2175C-6.42986 52.2175 -17.7825 63.5701 -17.7825 77.5212C-17.7825 91.4724 -6.42986 102.832 7.52127 102.832C21.4724 102.832 32.8325 91.4799 32.8325 77.5212C32.8325 63.5626 21.4799 52.2175 7.52127 52.2175Z" fill="#0B315E"/>
<path d="M7.52127 91.6521C-0.266804 91.6521 -6.60211 85.3168 -6.60211 77.5288C-6.60211 69.7407 -0.266804 63.4054 7.52127 63.4054C15.3093 63.4054 21.6446 69.7407 21.6446 77.5288C21.6521 85.3093 15.3093 91.6521 7.52127 91.6521ZM7.52127 64.8956C0.556934 64.8956 -5.10441 70.5569 -5.10441 77.5213C-5.10441 84.4856 0.556934 90.1469 7.52127 90.1469C14.4856 90.1469 20.1469 84.4856 20.1469 77.5213C20.1544 70.5644 14.4856 64.8956 7.52127 64.8956Z" fill="#0B315E"/>
</svg>
