<svg width="188" height="190" viewBox="0 0 188 190" fill="none" xmlns="http://www.w3.org/2000/svg">
<path d="M135.221 34.9475C154.975 44.2824 169.912 60.7539 177.284 81.3225L176.299 81.6753C161.283 39.7532 114.967 17.8664 73.0444 32.8823C52.7366 40.1563 36.4768 54.9029 27.2629 74.4009C18.0491 93.8989 16.9775 115.829 24.2537 136.132L23.2687 136.484C15.8996 115.911 16.9862 93.7043 26.3211 73.9501C35.656 54.1959 52.1275 39.2592 72.6961 31.8878C93.2602 24.526 115.467 25.6126 135.221 34.9475Z" fill="#0B315E"/>
<path d="M132.802 40.0663C150.441 48.4013 164.902 63.447 171.984 83.2169L170.999 83.5697C157.031 44.5747 113.941 24.2124 74.9412 38.1776C35.9462 52.145 15.5816 95.2399 29.549 134.235L28.5641 134.588C14.4014 95.0479 35.0485 51.3552 74.5906 37.1879C94.3584 30.1113 115.169 31.7335 132.802 40.0663Z" fill="#0B315E"/>
<path d="M130.413 45.1235C147.448 53.1738 160.328 67.3791 166.686 85.1184L165.701 85.4712C159.44 67.9926 146.749 54.0038 129.969 46.0745C113.184 38.143 94.3166 37.224 76.845 43.4821C59.3664 49.7427 45.3775 62.4344 37.4483 79.2141C29.5167 95.9985 28.5978 114.866 34.8559 132.338L33.8708 132.691C27.5177 114.954 28.4514 95.7969 36.5017 78.761C44.552 61.7251 58.7573 48.8455 76.4966 42.4876C94.2245 36.1417 113.377 37.0731 130.413 45.1235Z" fill="#0B315E"/>
<path d="M127.994 50.2423C143.023 57.3444 155.348 70.1677 161.384 87.0176L160.399 87.3704C148.523 54.2156 111.89 36.9043 78.7348 48.7799C45.5799 60.6555 28.2687 97.289 40.1443 130.444L39.1593 130.797C27.0885 97.0969 44.6845 59.8609 78.382 47.7949C95.2318 41.7595 112.965 43.1403 127.994 50.2423Z" fill="#0B315E"/>
<path d="M125.59 55.3279C139.315 61.8135 150.576 73.5245 156.088 88.9143L155.103 89.2671C144.274 59.0324 110.871 43.2478 80.6409 54.0797C50.4062 64.9093 34.6216 98.3121 45.4535 128.542L44.4685 128.895C33.4462 98.1223 49.5177 64.1123 80.2904 53.0899C95.6685 47.5778 111.866 48.8424 125.59 55.3279Z" fill="#0B315E"/>
<path d="M123.187 60.4136C135.612 66.2849 145.802 76.886 150.788 90.8088L149.803 91.1616C140.022 63.8539 109.845 49.5937 82.5377 59.375C69.3065 64.1142 58.7136 73.7215 52.71 86.426C46.7064 99.1306 46.0096 113.414 50.7488 126.645L49.7638 126.998C44.9273 113.506 45.6436 98.9359 51.7659 85.9799C57.8883 73.0239 68.6952 63.2218 82.1849 58.39C96.1077 53.403 110.763 54.5423 123.187 60.4136Z" fill="#0B315E"/>
<path d="M120.784 65.4992C131.904 70.754 141.024 80.2404 145.491 92.7102L144.506 93.063C135.771 68.6754 108.824 55.9419 84.4368 64.6772C60.0492 73.4125 47.3157 100.359 56.051 124.746L55.066 125.099C46.1356 100.167 59.1537 72.6179 84.0863 63.6875C96.542 59.226 109.664 60.2444 120.784 65.4992Z" fill="#0B315E"/>
<path d="M44.4469 150.653L48.4755 149.214L47.1842 151.947L44.4469 150.653Z" fill="#0B315E"/>
<path d="M39.3802 148.259L50.872 144.143L49.5807 146.876L42.1128 149.55L39.3802 148.259Z" fill="#0B315E"/>
<path d="M24.2088 141.09L58.039 128.976L56.7679 131.666L26.9034 142.363L24.2088 141.09Z" fill="#0B315E"/>
<path d="M29.2375 143.466L55.6627 134.005L54.3714 136.738L31.9701 144.757L29.2375 143.466Z" fill="#0B315E"/>
<path d="M34.3089 145.863L53.2685 139.072L51.9749 141.809L37.0414 147.154L34.3089 145.863Z" fill="#0B315E"/>
</svg>
