<svg width="1436" height="430" viewBox="0 0 1436 430" fill="none" xmlns="http://www.w3.org/2000/svg">
<path d="M1383.22 34.9475C1402.98 44.2824 1417.91 60.7539 1425.28 81.3225L1424.3 81.6753C1409.28 39.7532 1362.97 17.8664 1321.04 32.8823C1300.74 40.1563 1284.48 54.9029 1275.26 74.4009C1266.05 93.8989 1264.98 115.829 1272.25 136.132L1271.27 136.484C1263.9 115.911 1264.99 93.7043 1274.32 73.9501C1283.66 54.1959 1300.13 39.2592 1320.7 31.8878C1341.26 24.526 1363.47 25.6126 1383.22 34.9475Z" fill="#0B315E"/>
<path d="M1380.8 40.0663C1398.44 48.4013 1412.9 63.447 1419.98 83.2169L1419 83.5697C1405.03 44.5747 1361.94 24.2124 1322.94 38.1776C1283.95 52.145 1263.58 95.2399 1277.55 134.235L1276.56 134.588C1262.4 95.0479 1283.05 51.3552 1322.59 37.1879C1342.36 30.1113 1363.17 31.7335 1380.8 40.0663Z" fill="#0B315E"/>
<path d="M1378.41 45.1235C1395.45 53.1738 1408.33 67.3791 1414.69 85.1184L1413.7 85.4712C1407.44 67.9926 1394.75 54.0038 1377.97 46.0745C1361.18 38.143 1342.32 37.224 1324.84 43.4821C1307.37 49.7427 1293.38 62.4344 1285.45 79.2141C1277.52 95.9985 1276.6 114.866 1282.86 132.338L1281.87 132.691C1275.52 114.954 1276.45 95.7969 1284.5 78.761C1292.55 61.7251 1306.76 48.8455 1324.5 42.4876C1342.22 36.1417 1361.38 37.0731 1378.41 45.1235Z" fill="#0B315E"/>
<path d="M1375.99 50.2423C1391.02 57.3444 1403.35 70.1677 1409.38 87.0176L1408.4 87.3704C1396.52 54.2156 1359.89 36.9043 1326.73 48.7799C1293.58 60.6555 1276.27 97.289 1288.14 130.444L1287.16 130.797C1275.09 97.0969 1292.68 59.8609 1326.38 47.7949C1343.23 41.7595 1360.96 43.1403 1375.99 50.2423Z" fill="#0B315E"/>
<path d="M1373.59 55.3279C1387.31 61.8135 1398.58 73.5245 1404.09 88.9143L1403.1 89.2671C1392.27 59.0324 1358.87 43.2478 1328.64 54.0797C1298.41 64.9093 1282.62 98.3121 1293.45 128.542L1292.47 128.895C1281.45 98.1223 1297.52 64.1123 1328.29 53.0899C1343.67 47.5778 1359.87 48.8424 1373.59 55.3279Z" fill="#0B315E"/>
<path d="M1371.19 60.4136C1383.61 66.2849 1393.8 76.886 1398.79 90.8088L1397.8 91.1616C1388.02 63.8539 1357.85 49.5937 1330.54 59.375C1317.31 64.1142 1306.71 73.7215 1300.71 86.426C1294.71 99.1306 1294.01 113.414 1298.75 126.645L1297.76 126.998C1292.93 113.506 1293.64 98.9359 1299.77 85.9799C1305.89 73.0239 1316.7 63.2218 1330.18 58.39C1344.11 53.403 1358.76 54.5423 1371.19 60.4136Z" fill="#0B315E"/>
<path d="M1368.78 65.4992C1379.9 70.754 1389.02 80.2404 1393.49 92.7102L1392.51 93.063C1383.77 68.6754 1356.82 55.9419 1332.44 64.6772C1308.05 73.4125 1295.32 100.359 1304.05 124.746L1303.07 125.099C1294.14 100.167 1307.15 72.6179 1332.09 63.6875C1344.54 59.226 1357.66 60.2444 1368.78 65.4992Z" fill="#0B315E"/>
<path d="M1292.45 150.653L1296.48 149.214L1295.18 151.947L1292.45 150.653Z" fill="#0B315E"/>
<path d="M1287.38 148.259L1298.87 144.143L1297.58 146.876L1290.11 149.55L1287.38 148.259Z" fill="#0B315E"/>
<path d="M1272.21 141.09L1306.04 128.976L1304.77 131.666L1274.9 142.363L1272.21 141.09Z" fill="#0B315E"/>
<path d="M1277.24 143.466L1303.66 134.005L1302.37 136.738L1279.97 144.757L1277.24 143.466Z" fill="#0B315E"/>
<path d="M1282.31 145.863L1301.27 139.072L1299.97 141.809L1285.04 147.154L1282.31 145.863Z" fill="#0B315E"/>
<path d="M7.52127 429.05C-35.2233 429.05 -70 394.273 -70 351.521C-70 308.769 -35.2233 274 7.52127 274C50.2658 274 85.05 308.777 85.05 351.521C85.05 394.266 50.2733 429.05 7.52127 429.05ZM7.52127 275.498C-34.3995 275.498 -68.5023 309.6 -68.5023 351.521C-68.5023 393.442 -34.3995 427.552 7.52127 427.552C49.4421 427.552 83.5523 393.45 83.5523 351.521C83.5523 309.6 49.4421 275.498 7.52127 275.498Z" fill="#0B315E"/>
<path d="M7.52127 416.372C-28.2365 416.372 -57.3219 387.279 -57.3219 351.529C-57.3219 315.771 -28.229 286.686 7.52127 286.686C43.279 286.686 72.3644 315.778 72.3644 351.529C72.3719 387.279 43.279 416.372 7.52127 416.372ZM7.52127 291.808C-25.4058 291.808 -52.1923 318.594 -52.1923 351.521C-52.1923 384.448 -25.4058 411.235 7.52127 411.235C40.4483 411.235 67.2348 384.448 67.2348 351.521C67.2348 318.594 40.4483 291.808 7.52127 291.808Z" fill="#FF9D00"/>
<path d="M7.52126 403.686C-21.2422 403.686 -44.6438 380.285 -44.6438 351.521C-44.6438 322.758 -21.2422 299.356 7.52126 299.356C36.2847 299.356 59.6863 322.758 59.6863 351.521C59.6863 380.285 36.2847 403.686 7.52126 403.686ZM7.52126 300.854C-20.4184 300.854 -43.1461 323.582 -43.1461 351.521C-43.1461 379.461 -20.4184 402.189 7.52126 402.189C35.461 402.189 58.1886 379.461 58.1886 351.521C58.1886 323.582 35.461 300.854 7.52126 300.854Z" fill="#0B315E"/>
<path d="M7.52126 391.008C-14.2479 391.008 -31.9658 373.298 -31.9658 351.521C-31.9658 329.745 -14.2554 312.034 7.52126 312.034C29.2979 312.034 47.0083 329.745 47.0083 351.521C47.0083 373.298 29.2979 391.008 7.52126 391.008ZM7.52126 313.539C-13.4242 313.539 -30.4681 330.583 -30.4681 351.529C-30.4681 372.474 -13.4242 389.518 7.52126 389.518C28.4667 389.518 45.5106 372.474 45.5106 351.529C45.5106 330.583 28.4742 313.539 7.52126 313.539Z" fill="#0B315E"/>
<path d="M7.52127 378.33C-7.26109 378.33 -19.2802 366.304 -19.2802 351.521C-19.2802 336.739 -7.2536 324.72 7.52127 324.72C22.3036 324.72 34.3302 336.746 34.3302 351.521C34.3302 366.304 22.3036 378.33 7.52127 378.33ZM7.52127 326.217C-6.42986 326.217 -17.7825 337.57 -17.7825 351.521C-17.7825 365.472 -6.42986 376.832 7.52127 376.832C21.4724 376.832 32.8325 365.48 32.8325 351.521C32.8325 337.563 21.4799 326.217 7.52127 326.217Z" fill="#0B315E"/>
<path d="M7.52127 365.652C-0.266804 365.652 -6.60211 359.317 -6.60211 351.529C-6.60211 343.741 -0.266804 337.405 7.52127 337.405C15.3093 337.405 21.6446 343.741 21.6446 351.529C21.6521 359.309 15.3093 365.652 7.52127 365.652ZM7.52127 338.896C0.556934 338.896 -5.10441 344.557 -5.10441 351.521C-5.10441 358.486 0.556934 364.147 7.52127 364.147C14.4856 364.147 20.1469 358.486 20.1469 351.521C20.1544 344.564 14.4856 338.896 7.52127 338.896Z" fill="#0B315E"/>
</svg>
