<svg width="164" height="60" viewBox="0 0 164 60" fill="none" xmlns="http://www.w3.org/2000/svg">
<path d="M0 10C0 4.47715 4.47715 0 10 0H164V60H0V10Z" fill="white"/>
<path d="M22.352 40.742C22.604 40.3033 22.9773 39.9393 23.472 39.65C23.976 39.3513 24.5593 39.202 25.222 39.202C25.9033 39.202 26.5193 39.3653 27.07 39.692C27.63 40.0187 28.0687 40.4807 28.386 41.078C28.7033 41.666 28.862 42.352 28.862 43.136C28.862 43.9107 28.7033 44.6013 28.386 45.208C28.0687 45.8147 27.63 46.286 27.07 46.622C26.5193 46.958 25.9033 47.126 25.222 47.126C24.5687 47.126 23.99 46.9813 23.486 46.692C22.9913 46.3933 22.6133 46.0247 22.352 45.586V50.64H21.078V39.328H22.352V40.742ZM27.56 43.136C27.56 42.5573 27.4433 42.0533 27.21 41.624C26.9767 41.1947 26.6593 40.868 26.258 40.644C25.866 40.42 25.432 40.308 24.956 40.308C24.4893 40.308 24.0553 40.4247 23.654 40.658C23.262 40.882 22.9447 41.2133 22.702 41.652C22.4687 42.0813 22.352 42.5807 22.352 43.15C22.352 43.7287 22.4687 44.2373 22.702 44.676C22.9447 45.1053 23.262 45.4367 23.654 45.67C24.0553 45.894 24.4893 46.006 24.956 46.006C25.432 46.006 25.866 45.894 26.258 45.67C26.6593 45.4367 26.9767 45.1053 27.21 44.676C27.4433 44.2373 27.56 43.724 27.56 43.136ZM33.8849 47.126C33.1663 47.126 32.5129 46.9627 31.9249 46.636C31.3463 46.3093 30.8889 45.8473 30.5529 45.25C30.2263 44.6433 30.0629 43.9433 30.0629 43.15C30.0629 42.366 30.2309 41.6753 30.5669 41.078C30.9123 40.4713 31.3789 40.0093 31.9669 39.692C32.5549 39.3653 33.2129 39.202 33.9409 39.202C34.6689 39.202 35.3269 39.3653 35.9149 39.692C36.5029 40.0093 36.9649 40.4667 37.3009 41.064C37.6463 41.6613 37.8189 42.3567 37.8189 43.15C37.8189 43.9433 37.6416 44.6433 37.2869 45.25C36.9416 45.8473 36.4703 46.3093 35.8729 46.636C35.2756 46.9627 34.6129 47.126 33.8849 47.126ZM33.8849 46.006C34.3423 46.006 34.7716 45.8987 35.1729 45.684C35.5743 45.4693 35.8963 45.1473 36.1389 44.718C36.3909 44.2887 36.5169 43.766 36.5169 43.15C36.5169 42.534 36.3956 42.0113 36.1529 41.582C35.9103 41.1527 35.5929 40.8353 35.2009 40.63C34.8089 40.4153 34.3843 40.308 33.9269 40.308C33.4603 40.308 33.0309 40.4153 32.6389 40.63C32.2563 40.8353 31.9483 41.1527 31.7149 41.582C31.4816 42.0113 31.3649 42.534 31.3649 43.15C31.3649 43.7753 31.4769 44.3027 31.7009 44.732C31.9343 45.1613 32.2423 45.4833 32.6249 45.698C33.0076 45.9033 33.4276 46.006 33.8849 46.006ZM40.768 40.574C40.992 40.1353 41.3093 39.7947 41.72 39.552C42.14 39.3093 42.6487 39.188 43.246 39.188V40.504H42.91C41.482 40.504 40.768 41.2787 40.768 42.828V47H39.494V39.328H40.768V40.574ZM46.2707 40.378V44.9C46.2707 45.2733 46.35 45.5393 46.5087 45.698C46.6673 45.8473 46.9427 45.922 47.3347 45.922H48.2727V47H47.1247C46.4153 47 45.8833 46.8367 45.5287 46.51C45.174 46.1833 44.9967 45.6467 44.9967 44.9V40.378H44.0027V39.328H44.9967V37.396H46.2707V39.328H48.2727V40.378H46.2707ZM52.9383 40.378H51.3283V47H50.0543V40.378H49.0603V39.328H50.0543V38.782C50.0543 37.9233 50.2736 37.298 50.7123 36.906C51.1603 36.5047 51.8743 36.304 52.8543 36.304V37.368C52.2943 37.368 51.8976 37.48 51.6643 37.704C51.4403 37.9187 51.3283 38.278 51.3283 38.782V39.328H52.9383V40.378ZM57.7697 47.126C57.051 47.126 56.3977 46.9627 55.8097 46.636C55.231 46.3093 54.7737 45.8473 54.4377 45.25C54.111 44.6433 53.9477 43.9433 53.9477 43.15C53.9477 42.366 54.1157 41.6753 54.4517 41.078C54.797 40.4713 55.2637 40.0093 55.8517 39.692C56.4397 39.3653 57.0977 39.202 57.8257 39.202C58.5537 39.202 59.2117 39.3653 59.7997 39.692C60.3877 40.0093 60.8497 40.4667 61.1857 41.064C61.531 41.6613 61.7037 42.3567 61.7037 43.15C61.7037 43.9433 61.5264 44.6433 61.1717 45.25C60.8264 45.8473 60.355 46.3093 59.7577 46.636C59.1604 46.9627 58.4977 47.126 57.7697 47.126ZM57.7697 46.006C58.227 46.006 58.6564 45.8987 59.0577 45.684C59.459 45.4693 59.781 45.1473 60.0237 44.718C60.2757 44.2887 60.4017 43.766 60.4017 43.15C60.4017 42.534 60.2804 42.0113 60.0377 41.582C59.795 41.1527 59.4777 40.8353 59.0857 40.63C58.6937 40.4153 58.269 40.308 57.8117 40.308C57.345 40.308 56.9157 40.4153 56.5237 40.63C56.141 40.8353 55.833 41.1527 55.5997 41.582C55.3664 42.0113 55.2497 42.534 55.2497 43.15C55.2497 43.7753 55.3617 44.3027 55.5857 44.732C55.819 45.1613 56.127 45.4833 56.5097 45.698C56.8924 45.9033 57.3124 46.006 57.7697 46.006ZM64.6528 36.64V47H63.3788V36.64H64.6528ZM67.4821 38.082C67.2394 38.082 67.0341 37.998 66.8661 37.83C66.6981 37.662 66.6141 37.4567 66.6141 37.214C66.6141 36.9713 66.6981 36.766 66.8661 36.598C67.0341 36.43 67.2394 36.346 67.4821 36.346C67.7154 36.346 67.9114 36.43 68.0701 36.598C68.2381 36.766 68.3221 36.9713 68.3221 37.214C68.3221 37.4567 68.2381 37.662 68.0701 37.83C67.9114 37.998 67.7154 38.082 67.4821 38.082ZM68.0981 39.328V47H66.8241V39.328H68.0981ZM73.6154 47.126C72.8967 47.126 72.2434 46.9627 71.6554 46.636C71.0767 46.3093 70.6194 45.8473 70.2834 45.25C69.9567 44.6433 69.7934 43.9433 69.7934 43.15C69.7934 42.366 69.9614 41.6753 70.2974 41.078C70.6427 40.4713 71.1094 40.0093 71.6974 39.692C72.2854 39.3653 72.9434 39.202 73.6714 39.202C74.3994 39.202 75.0574 39.3653 75.6454 39.692C76.2334 40.0093 76.6954 40.4667 77.0314 41.064C77.3767 41.6613 77.5494 42.3567 77.5494 43.15C77.5494 43.9433 77.3721 44.6433 77.0174 45.25C76.6721 45.8473 76.2007 46.3093 75.6034 46.636C75.0061 46.9627 74.3434 47.126 73.6154 47.126ZM73.6154 46.006C74.0727 46.006 74.5021 45.8987 74.9034 45.684C75.3047 45.4693 75.6267 45.1473 75.8694 44.718C76.1214 44.2887 76.2474 43.766 76.2474 43.15C76.2474 42.534 76.1261 42.0113 75.8834 41.582C75.6407 41.1527 75.3234 40.8353 74.9314 40.63C74.5394 40.4153 74.1147 40.308 73.6574 40.308C73.1907 40.308 72.7614 40.4153 72.3694 40.63C71.9867 40.8353 71.6787 41.1527 71.4454 41.582C71.2121 42.0113 71.0954 42.534 71.0954 43.15C71.0954 43.7753 71.2074 44.3027 71.4314 44.732C71.6647 45.1613 71.9727 45.4833 72.3554 45.698C72.7381 45.9033 73.1581 46.006 73.6154 46.006Z" fill="#4B44B8"/>
<path d="M29.4453 13.5156H32.6445V26.4775C32.6445 28.2464 32.0902 29.6514 30.9814 30.6924C29.8812 31.7334 28.4255 32.2539 26.6143 32.2539C24.6846 32.2539 23.195 31.7673 22.1455 30.7939C21.096 29.8206 20.5713 28.4665 20.5713 26.7314H23.7705C23.7705 27.7132 24.0117 28.4538 24.4941 28.9531C24.985 29.444 25.6917 29.6895 26.6143 29.6895C27.4775 29.6895 28.1631 29.4059 28.6709 28.8389C29.1872 28.2633 29.4453 27.472 29.4453 26.4648V13.5156ZM44.2354 32C44.0999 31.7376 43.9814 31.3102 43.8799 30.7178C42.8981 31.7419 41.6963 32.2539 40.2744 32.2539C38.8949 32.2539 37.7692 31.8604 36.8975 31.0732C36.0257 30.2861 35.5898 29.3128 35.5898 28.1533C35.5898 26.6891 36.1315 25.5677 37.2148 24.7891C38.3066 24.002 39.8639 23.6084 41.8867 23.6084H43.7783V22.707C43.7783 21.9961 43.5794 21.429 43.1816 21.0059C42.7839 20.5742 42.1787 20.3584 41.3662 20.3584C40.6637 20.3584 40.0882 20.5361 39.6396 20.8916C39.1911 21.2386 38.9668 21.6829 38.9668 22.2246H35.8818C35.8818 21.4714 36.1315 20.7689 36.6309 20.1172C37.1302 19.457 37.8073 18.9408 38.6621 18.5684C39.5254 18.196 40.486 18.0098 41.5439 18.0098C43.152 18.0098 44.4342 18.416 45.3906 19.2285C46.347 20.0326 46.8379 21.1667 46.8633 22.6309V28.8262C46.8633 30.0618 47.0368 31.0479 47.3838 31.7842V32H44.2354ZM40.8457 29.7783C41.4551 29.7783 42.0264 29.6302 42.5596 29.334C43.1012 29.0378 43.5075 28.64 43.7783 28.1406V25.5508H42.1152C40.9727 25.5508 40.1136 25.7497 39.5381 26.1475C38.9626 26.5452 38.6748 27.1081 38.6748 27.8359C38.6748 28.4284 38.8695 28.9023 39.2588 29.2578C39.6566 29.6048 40.1855 29.7783 40.8457 29.7783ZM49.5166 25.0303C49.5166 22.9144 50.0075 21.2174 50.9893 19.9395C51.971 18.653 53.2871 18.0098 54.9375 18.0098C56.3932 18.0098 57.5697 18.5176 58.4668 19.5332V12.5H61.5518V32H58.7588L58.6064 30.5781C57.6839 31.6953 56.4525 32.2539 54.9121 32.2539C53.304 32.2539 52.0007 31.6064 51.002 30.3115C50.0117 29.0166 49.5166 27.2562 49.5166 25.0303ZM52.6016 25.2969C52.6016 26.6934 52.8682 27.7852 53.4014 28.5723C53.943 29.3509 54.709 29.7402 55.6992 29.7402C56.9603 29.7402 57.8828 29.1774 58.4668 28.0518V22.1865C57.8997 21.0863 56.9857 20.5361 55.7246 20.5361C54.7259 20.5361 53.9557 20.9339 53.4141 21.7295C52.8724 22.5166 52.6016 23.7057 52.6016 25.2969ZM70.8193 32.2539C68.8643 32.2539 67.2773 31.6403 66.0586 30.4131C64.8483 29.1774 64.2432 27.5355 64.2432 25.4873V25.1064C64.2432 23.7354 64.5055 22.5124 65.0303 21.4375C65.5635 20.3542 66.3083 19.512 67.2646 18.9111C68.221 18.3102 69.2874 18.0098 70.4639 18.0098C72.3343 18.0098 73.7773 18.6064 74.793 19.7998C75.8171 20.9932 76.3291 22.6816 76.3291 24.8652V26.1094H67.3535C67.4466 27.2435 67.8232 28.1406 68.4834 28.8008C69.152 29.4609 69.9899 29.791 70.9971 29.791C72.4105 29.791 73.5615 29.2197 74.4502 28.0771L76.1133 29.6641C75.5632 30.485 74.8268 31.124 73.9043 31.5811C72.9902 32.0296 71.9619 32.2539 70.8193 32.2539ZM70.4512 20.4854C69.6048 20.4854 68.9193 20.7816 68.3945 21.374C67.8783 21.9665 67.5482 22.7917 67.4043 23.8496H73.2822V23.6211C73.2145 22.5885 72.9395 21.8099 72.457 21.2852C71.9746 20.752 71.306 20.4854 70.4512 20.4854ZM90.8145 24.0146L88.7197 26.2363V32H85.5078V13.5156H88.7197V22.1865L90.4971 19.9902L95.9053 13.5156H99.79L92.9219 21.7041L100.184 32H96.375L90.8145 24.0146ZM109.819 32C109.684 31.7376 109.565 31.3102 109.464 30.7178C108.482 31.7419 107.28 32.2539 105.858 32.2539C104.479 32.2539 103.353 31.8604 102.481 31.0732C101.61 30.2861 101.174 29.3128 101.174 28.1533C101.174 26.6891 101.715 25.5677 102.799 24.7891C103.891 24.002 105.448 23.6084 107.471 23.6084H109.362V22.707C109.362 21.9961 109.163 21.429 108.766 21.0059C108.368 20.5742 107.763 20.3584 106.95 20.3584C106.248 20.3584 105.672 20.5361 105.224 20.8916C104.775 21.2386 104.551 21.6829 104.551 22.2246H101.466C101.466 21.4714 101.715 20.7689 102.215 20.1172C102.714 19.457 103.391 18.9408 104.246 18.5684C105.109 18.196 106.07 18.0098 107.128 18.0098C108.736 18.0098 110.018 18.416 110.975 19.2285C111.931 20.0326 112.422 21.1667 112.447 22.6309V28.8262C112.447 30.0618 112.621 31.0479 112.968 31.7842V32H109.819ZM106.43 29.7783C107.039 29.7783 107.61 29.6302 108.144 29.334C108.685 29.0378 109.091 28.64 109.362 28.1406V25.5508H107.699C106.557 25.5508 105.698 25.7497 105.122 26.1475C104.547 26.5452 104.259 27.1081 104.259 27.8359C104.259 28.4284 104.453 28.9023 104.843 29.2578C105.241 29.6048 105.77 29.7783 106.43 29.7783ZM118.541 18.2637L118.63 19.8506C119.646 18.6234 120.979 18.0098 122.629 18.0098C125.49 18.0098 126.945 19.6475 126.996 22.9229V32H123.911V23.1006C123.911 22.2288 123.721 21.5856 123.34 21.1709C122.967 20.7477 122.354 20.5361 121.499 20.5361C120.255 20.5361 119.328 21.099 118.719 22.2246V32H115.634V18.2637H118.541ZM129.611 25.0303C129.611 22.8975 130.111 21.1963 131.109 19.9268C132.117 18.6488 133.45 18.0098 135.108 18.0098C136.674 18.0098 137.906 18.5557 138.803 19.6475L138.942 18.2637H141.723V31.5811C141.723 33.3838 141.16 34.8057 140.034 35.8467C138.917 36.8877 137.406 37.4082 135.502 37.4082C134.495 37.4082 133.509 37.1966 132.544 36.7734C131.588 36.3587 130.86 35.8128 130.36 35.1357L131.82 33.2822C132.768 34.4079 133.936 34.9707 135.324 34.9707C136.348 34.9707 137.157 34.6914 137.749 34.1328C138.341 33.5827 138.638 32.7702 138.638 31.6953V30.7686C137.749 31.7588 136.564 32.2539 135.083 32.2539C133.475 32.2539 132.159 31.6149 131.135 30.3369C130.119 29.0589 129.611 27.29 129.611 25.0303ZM132.684 25.2969C132.684 26.6764 132.963 27.764 133.521 28.5596C134.089 29.3467 134.871 29.7402 135.87 29.7402C137.114 29.7402 138.037 29.207 138.638 28.1406V22.0977C138.054 21.0566 137.14 20.5361 135.896 20.5361C134.88 20.5361 134.089 20.9382 133.521 21.7422C132.963 22.5462 132.684 23.7311 132.684 25.2969Z" fill="#4B44B8"/>
</svg>
