<svg width="44" height="67" viewBox="0 0 44 67" fill="none" xmlns="http://www.w3.org/2000/svg">
<g clip-path="url(#clip0)">
<path d="M21.9689 0C15.4811 0 10.2031 5.27802 10.2031 11.7657V28.2343C10.2031 34.722 15.4811 40 21.9689 40C28.4566 40 33.7346 34.722 33.7346 28.2343V11.7657C33.7346 5.27802 28.4566 0 21.9689 0ZM31.3347 28.2343C31.3347 33.3984 27.1331 37.6001 21.9689 37.6001C16.8047 37.6001 12.603 33.3984 12.603 28.2343V11.7657C12.603 6.60156 16.8047 2.3999 21.9689 2.3999C27.1331 2.3999 31.3347 6.60156 31.3347 11.7657V28.2343Z" fill="#EEECF5"/>
<path d="M21.9692 7.95715C21.3063 7.95715 20.7692 8.49426 20.7692 9.1571V14.6802C20.7692 15.3427 21.3063 15.8801 21.9692 15.8801C22.6317 15.8801 23.1691 15.3427 23.1691 14.6802V9.1571C23.1691 8.49426 22.632 7.95715 21.9692 7.95715Z" fill="#EEECF5"/>
</g>
<path d="M4.768 61.112C4.032 61.112 3.37067 60.984 2.784 60.728C2.208 60.4613 1.75467 60.0987 1.424 59.64C1.09333 59.1707 0.922667 58.632 0.912 58.024H2.464C2.51733 58.5467 2.73067 58.9893 3.104 59.352C3.488 59.704 4.04267 59.88 4.768 59.88C5.46133 59.88 6.00533 59.7093 6.4 59.368C6.80533 59.016 7.008 58.568 7.008 58.024C7.008 57.5973 6.89067 57.2507 6.656 56.984C6.42133 56.7173 6.128 56.5147 5.776 56.376C5.424 56.2373 4.94933 56.088 4.352 55.928C3.616 55.736 3.024 55.544 2.576 55.352C2.13867 55.16 1.76 54.8613 1.44 54.456C1.13067 54.04 0.976 53.4853 0.976 52.792C0.976 52.184 1.13067 51.6453 1.44 51.176C1.74933 50.7067 2.18133 50.344 2.736 50.088C3.30133 49.832 3.94667 49.704 4.672 49.704C5.71733 49.704 6.57067 49.9653 7.232 50.488C7.904 51.0107 8.28267 51.704 8.368 52.568H6.768C6.71467 52.1413 6.49067 51.768 6.096 51.448C5.70133 51.1173 5.17867 50.952 4.528 50.952C3.92 50.952 3.424 51.112 3.04 51.432C2.656 51.7413 2.464 52.1787 2.464 52.744C2.464 53.1493 2.576 53.48 2.8 53.736C3.03467 53.992 3.31733 54.1893 3.648 54.328C3.98933 54.456 4.464 54.6053 5.072 54.776C5.808 54.9787 6.4 55.1813 6.848 55.384C7.296 55.576 7.68 55.88 8 56.296C8.32 56.7013 8.48 57.256 8.48 57.96C8.48 58.504 8.336 59.016 8.048 59.496C7.76 59.976 7.33333 60.3653 6.768 60.664C6.20267 60.9627 5.536 61.112 4.768 61.112ZM10.0786 56.6C10.0786 55.6933 10.26 54.904 10.6226 54.232C10.9853 53.5493 11.4866 53.0213 12.1266 52.648C12.7773 52.2747 13.5186 52.088 14.3506 52.088C15.428 52.088 16.3133 52.3493 17.0066 52.872C17.7106 53.3947 18.1746 54.12 18.3986 55.048H16.8306C16.6813 54.5147 16.388 54.0933 15.9506 53.784C15.524 53.4747 14.9906 53.32 14.3506 53.32C13.5186 53.32 12.8466 53.608 12.3346 54.184C11.8226 54.7493 11.5666 55.5547 11.5666 56.6C11.5666 57.656 11.8226 58.472 12.3346 59.048C12.8466 59.624 13.5186 59.912 14.3506 59.912C14.9906 59.912 15.524 59.7627 15.9506 59.464C16.3773 59.1653 16.6706 58.7387 16.8306 58.184H18.3986C18.164 59.08 17.6946 59.8 16.9906 60.344C16.2866 60.8773 15.4066 61.144 14.3506 61.144C13.5186 61.144 12.7773 60.9573 12.1266 60.584C11.4866 60.2107 10.9853 59.6827 10.6226 59C10.26 58.3173 10.0786 57.5173 10.0786 56.6ZM21.7974 53.656C22.0534 53.1547 22.416 52.7653 22.8854 52.488C23.3654 52.2107 23.9467 52.072 24.6294 52.072V53.576H24.2454C22.6134 53.576 21.7974 54.4613 21.7974 56.232V61H20.3414V52.232H21.7974V53.656ZM30.1341 61.144C29.3128 61.144 28.5661 60.9573 27.8941 60.584C27.2328 60.2107 26.7101 59.6827 26.3261 59C25.9528 58.3067 25.7661 57.5067 25.7661 56.6C25.7661 55.704 25.9581 54.9147 26.3421 54.232C26.7368 53.5387 27.2701 53.0107 27.9421 52.648C28.6141 52.2747 29.3661 52.088 30.1981 52.088C31.0301 52.088 31.7821 52.2747 32.4541 52.648C33.1261 53.0107 33.6541 53.5333 34.0381 54.216C34.4328 54.8987 34.6301 55.6933 34.6301 56.6C34.6301 57.5067 34.4275 58.3067 34.0221 59C33.6275 59.6827 33.0888 60.2107 32.4061 60.584C31.7235 60.9573 30.9661 61.144 30.1341 61.144ZM30.1341 59.864C30.6568 59.864 31.1475 59.7413 31.6061 59.496C32.0648 59.2507 32.4328 58.8827 32.7101 58.392C32.9981 57.9013 33.1421 57.304 33.1421 56.6C33.1421 55.896 33.0035 55.2987 32.7261 54.808C32.4488 54.3173 32.0861 53.9547 31.6381 53.72C31.1901 53.4747 30.7048 53.352 30.1821 53.352C29.6488 53.352 29.1581 53.4747 28.7101 53.72C28.2728 53.9547 27.9208 54.3173 27.6541 54.808C27.3875 55.2987 27.2541 55.896 27.2541 56.6C27.2541 57.3147 27.3821 57.9173 27.6381 58.408C27.9048 58.8987 28.2568 59.2667 28.6941 59.512C29.1315 59.7467 29.6115 59.864 30.1341 59.864ZM38.0005 49.16V61H36.5445V49.16H38.0005ZM41.938 49.16V61H40.482V49.16H41.938Z" fill="#EEECF5"/>
<defs>
<clipPath id="clip0">
<rect width="40" height="40" fill="white" transform="translate(2)"/>
</clipPath>
</defs>
</svg>
