<svg width="193" height="49" viewBox="0 0 193 49" fill="none" xmlns="http://www.w3.org/2000/svg">
<path d="M176.696 29.1074L160.272 45.3877L143.838 29.1074L127.415 45.3877L110.991 29.1074L96.505 43.4671L82.0093 29.1074L65.5854 45.3877L49.1516 29.1074L32.7278 45.3877L16.3039 29.1074L0 45.2683L1.81821 47.0794L16.3039 32.7197L32.7278 49L49.1516 32.7197L65.5854 49L82.0093 32.7197L96.505 47.0893L110.991 32.7197L127.415 49L143.838 32.7197L160.272 49L176.696 32.7197L191.192 47.0794L193 45.2683L176.696 29.1074Z" fill="#B4BCC5"/>
<path d="M176.696 0L160.272 16.2803L143.838 0L127.415 16.2803L110.991 0L97.9636 12.9167L97.9536 16.539L110.991 3.6123L127.415 19.8926L143.838 3.6123L160.272 19.8926L176.696 3.6123L191.192 17.972L193 16.1509L176.696 0Z" fill="#FF9D00"/>
</svg>
